# xmcd CD database file
#
# Track frame offsets:
#	150
#	18677
#	37834
#	55175
#	73384
#	93004
#	109395
#	124786
#	138241
#	161171
#	172594
#
# Disc length: 2602 seconds
#
# Revision: 0
# Processed by: cddbd v1.5.2PL0 Copyright (c) Steve Scherf et al.
# Submitted via: CDex 1.70beta2
#
DISCID=8f0a280b
DTITLE=David Benoit - Heroes
DYEAR=1900
DGENRE=Jazz
TTITLE0=Mountain Dance
TTITLE1=Human Nature
TTITLE2=Your Song
TTITLE3=Light My Fire
TTITLE4=Never Can Say Goodbye
TTITLE5=She's Leaving Home
TTITLE6=Song For My Father
TTITLE7=You Look Good To Me
TTITLE8=Waltz For Debbie
TTITLE9=A Twisted Little Etude
TTITLE10=Blue Rondo A La Turk
EXTD=
EXTT0=
EXTT1=
EXTT2=
EXTT3=
EXTT4=
EXTT5=
EXTT6=
EXTT7=
EXTT8=
EXTT9=
EXTT10=
PLAYORDER=
